<?xml version="1.0" encoding="utf-8"?>
<!-- Generator: Adobe Illustrator 24.0.1, SVG Export Plug-In . SVG Version: 6.00 Build 0)  -->
<svg version="1.1" id="Isolation_Mode" xmlns="http://www.w3.org/2000/svg" xmlns:xlink="http://www.w3.org/1999/xlink" x="0px"
	 y="0px" viewBox="0 0 192 192" style="enable-background:new 0 0 192 192;" xml:space="preserve">
<style type="text/css">
	.st0{fill:#FFB400;}
</style>
<g>
	<g>
		<g>
			<path class="st0" d="M137.2,64.1c5.5,0.7,11.1,1.1,16.6,1c2.8,0,5.5-0.2,8.2-0.6c1.3-0.2,2.7-0.4,4-0.7c1.3-0.3,2.5-0.7,3.6-1.2
				c2.3-1.1,4.4-2.7,6-4.6c1.6-1.9,2.8-4.2,3.4-6.6c0.3-1.2,0.6-2.5,0.6-3.7c0.1-1.5,0.4-3.2,1.1-4.7c0.7-1.5,1.7-2.9,2.8-4
				c0.6-0.6,1.2-1.1,1.9-1.5c0.3-0.2,0.7-0.4,1.1-0.6c0.4-0.2,0.7-0.4,1.2-0.5l0.7,3.9c-2.9,0-5.8,0-8.7-0.3
				c-1.5-0.1-2.9-0.3-4.4-0.5c-0.7-0.1-1.5-0.3-2.3-0.5c-0.7-0.2-1.7-0.5-2.1-0.7c-1.2-0.3-2.5-0.6-3.9-0.7c-1.3-0.1-2.7-0.2-4-0.2
				c-2.7,0.1-5.4,0.5-8,1.3c-5.1,1.5-9.7,4.9-12.6,9.6c-1.5,2.3-2.6,4.9-3.5,7.6c-0.4,1.3-0.8,2.7-1.1,4.1
				C137.6,61.3,137.4,62.6,137.2,64.1z M137.2,64.1c0-1.3,0-2.9,0.2-4.3c0.1-1.4,0.4-2.9,0.6-4.3c0.6-2.8,1.5-5.6,2.9-8.3
				c1.4-2.6,3.2-5,5.5-7c2.3-2,5-3.5,7.8-4.5c2.8-1.1,5.8-1.6,8.8-1.8c1.5-0.1,3-0.1,4.5,0c1.5,0.1,3,0.3,4.6,0.7
				c1,0.3,1.3,0.5,2,0.6c0.6,0.2,1.3,0.3,1.9,0.4c1.3,0.2,2.7,0.3,4.1,0.4c2.8,0.2,5.6,0.2,8.4,0.2l0,0c1.1,0,2,0.9,2,2
				c0,0.9-0.6,1.7-1.4,1.9c-0.1,0-0.4,0.2-0.7,0.3c-0.3,0.1-0.5,0.3-0.7,0.4c-0.5,0.3-1,0.6-1.4,1c-0.8,0.8-1.5,1.7-2,2.7
				c-0.5,1.1-0.7,2.1-0.8,3.4c-0.1,1.5-0.4,3-0.9,4.5c-0.9,2.9-2.4,5.7-4.5,7.9c-2,2.3-4.6,4-7.4,5.1c-1.4,0.6-2.9,1-4.3,1.2
				l-2.1,0.3c-0.7,0.1-1.4,0.1-2.1,0.2c-2.9,0.2-5.7,0.1-8.5-0.1C148.1,66.6,142.5,65.7,137.2,64.1z"/>
		</g>
		<g>
			<path class="st0" d="M168.7,44.9c-1.8,2.6-4.1,4.9-6.4,7c-2.4,2.1-4.9,4-7.5,5.6c-2.7,1.7-5.5,3.1-8.4,4.3c-3,1.1-6,2-9.2,2.3
				c2.6-1.8,5.2-3.4,7.8-5.1c2.6-1.7,5.1-3.3,7.7-4.9c2.6-1.6,5.2-3.2,7.8-4.8C163.1,47.8,165.8,46.2,168.7,44.9z"/>
		</g>
	</g>
	<g>
		<g>
			<path class="st0" d="M63.9,57.8c1.2-5.5,2-11,2.4-16.5c0.2-2.7,0.2-5.5,0.1-8.2c-0.1-1.4-0.2-2.7-0.4-4c-0.2-1.3-0.5-2.5-0.9-3.7
				c-0.9-2.4-2.3-4.6-4.1-6.4c-1.8-1.8-3.9-3.1-6.3-4c-1.2-0.4-2.4-0.8-3.7-1c-1.5-0.2-3.1-0.7-4.6-1.5c-1.5-0.8-2.8-1.9-3.8-3.2
				c-0.5-0.6-1-1.3-1.3-2c-0.2-0.4-0.4-0.7-0.5-1.1c-0.2-0.4-0.3-0.7-0.4-1.3l3.9-0.3c-0.2,2.9-0.5,5.8-1,8.7
				c-0.2,1.4-0.5,2.9-0.9,4.4c-0.2,0.7-0.4,1.5-0.7,2.2c-0.2,0.7-0.7,1.7-0.8,2c-0.4,1.1-0.8,2.5-1,3.8c-0.2,1.3-0.4,2.7-0.5,4
				c-0.1,2.7,0,5.4,0.6,8c1.1,5.2,4.1,10.1,8.5,13.4c2.2,1.7,4.6,3,7.2,4.1c1.3,0.5,2.6,1,4,1.4C61.2,57.1,62.4,57.4,63.9,57.8z
				 M63.9,57.8c-1.3-0.2-2.9-0.2-4.3-0.5c-1.4-0.2-2.8-0.6-4.2-0.9c-2.8-0.8-5.5-2-8-3.5c-2.5-1.6-4.8-3.6-6.5-6.1
				c-1.8-2.4-3.1-5.2-3.9-8.1c-0.8-2.9-1.1-5.9-1.1-8.9c0-1.5,0.2-3,0.4-4.5c0.2-1.5,0.5-3,1.1-4.5c0.4-1,0.6-1.3,0.8-1.9
				c0.2-0.6,0.4-1.2,0.5-1.9c0.3-1.3,0.6-2.7,0.8-4c0.4-2.7,0.7-5.6,0.9-8.3l0,0c0.1-1.1,1-1.9,2.1-1.8c0.9,0.1,1.6,0.7,1.8,1.5
				c0,0.1,0.1,0.5,0.2,0.7c0.1,0.3,0.2,0.5,0.4,0.8c0.3,0.5,0.6,1,0.9,1.4c0.7,0.9,1.6,1.6,2.6,2.2c1,0.6,2.1,0.9,3.3,1.1
				c1.5,0.2,3,0.7,4.4,1.2c2.8,1.1,5.5,2.9,7.5,5.1c2.1,2.2,3.6,4.9,4.5,7.8c0.4,1.4,0.7,2.9,0.8,4.4l0.1,2.2c0,0.7,0,1.4,0,2.1
				c-0.1,2.9-0.3,5.7-0.8,8.5C67.3,47.1,65.9,52.6,63.9,57.8z"/>
		</g>
		<g>
			<path class="st0" d="M47.3,24.7c2.5,2.1,4.5,4.5,6.4,7c1.9,2.5,3.5,5.2,5,8c1.5,2.8,2.7,5.7,3.6,8.7c0.9,3,1.5,6.2,1.5,9.4
				c-1.6-2.8-3-5.5-4.4-8.2c-1.5-2.7-2.9-5.4-4.3-8.1c-1.4-2.7-2.8-5.4-4.1-8.2C49.7,30.6,48.4,27.8,47.3,24.7z"/>
		</g>
	</g>
	<g>
		<g>
			<path class="st0" d="M103.9,121.6c4,3.9,7.5,8.4,10.6,13c1.5,2.4,2.9,4.8,4.2,7.4c0.3,0.7,0.6,1.3,0.9,2l0.8,2
				c0.5,1.4,0.8,2.9,1,4.4c0.4,3,0.1,6.1-0.9,9c-1,2.9-2.6,5.6-4.8,7.7c-1,1.1-2.2,2.1-3.5,2.9c-1.1,0.7-1.9,1.4-2.6,2.4
				c-0.7,0.9-1.2,1.9-1.4,3c-0.1,0.6-0.2,1.1-0.3,1.7c0,0.3,0,0.6,0,0.9c0,0.3,0,0.6,0.1,0.7c0.2,1.1-0.5,2.1-1.6,2.3
				c-0.9,0.2-1.7-0.3-2.1-1l0,0c-1.3-2.4-2.7-4.9-4.2-7.2c-0.8-1.2-1.5-2.3-2.4-3.4c-0.4-0.5-0.8-1-1.3-1.5
				c-0.5-0.5-0.8-0.7-1.5-1.5c-1.1-1.2-2-2.4-2.8-3.7c-0.8-1.3-1.6-2.6-2.2-3.9c-1.3-2.7-2.3-5.6-2.7-8.6c-0.5-3-0.4-6.1,0.2-9
				c0.6-3,1.8-5.8,3.5-8.2c1.6-2.5,3.6-4.6,5.9-6.5c1.1-0.9,2.3-1.8,3.5-2.6C101.4,123,102.7,122.3,103.9,121.6z M103.9,121.6
				c-1.2,1-2.2,1.7-3.3,2.7c-1.1,0.9-2.1,1.9-3.1,2.9c-1.9,2.1-3.6,4.3-4.9,6.7c-2.7,4.8-3.4,10.4-2.3,15.7c0.6,2.6,1.5,5.2,2.7,7.6
				c0.6,1.2,1.3,2.4,2.1,3.5c0.8,1.1,1.6,2.2,2.5,3c0.3,0.3,1.1,1,1.6,1.5c0.6,0.6,1,1.2,1.5,1.8c0.9,1.2,1.8,2.4,2.6,3.6
				c1.6,2.5,3.1,4.9,4.5,7.5l-3.7,1.3c-0.1-0.6-0.1-0.9-0.1-1.3c0-0.4,0-0.8,0-1.2c0.1-0.8,0.2-1.6,0.4-2.4c0.4-1.6,1.1-3.1,2.2-4.4
				c1-1.3,2.3-2.4,3.6-3.2c1-0.7,2-1.5,3-2.4c1.8-1.7,3.2-3.9,4.2-6.2c0.9-2.4,1.3-4.9,1.1-7.5c-0.1-1.3-0.3-2.5-0.7-3.8
				c-0.4-1.3-0.8-2.6-1.3-3.8c-1-2.5-2.2-5-3.5-7.4C110.2,130.8,107.2,126.1,103.9,121.6z"/>
		</g>
		<g>
			<path class="st0" d="M102.3,158.5c-0.2-3.2-0.2-6.3-0.1-9.4c0.1-3.1,0.2-6.1,0.4-9.2c0.2-3,0.4-6.1,0.6-9.1
				c0.2-3.1,0.4-6.1,0.7-9.3c1.3,2.9,2,6.1,2.4,9.2c0.4,3.1,0.4,6.3,0.3,9.4c-0.2,3.1-0.6,6.3-1.3,9.3
				C104.6,152.6,103.7,155.6,102.3,158.5z"/>
		</g>
	</g>
	<g>
		<g>
			<path class="st0" d="M84.5,135.2c1.8,5.3,2.9,10.8,3.6,16.4c0.3,2.8,0.5,5.6,0.4,8.5c0,0.7,0,1.4-0.1,2.1l-0.2,2.1
				c-0.2,1.5-0.5,2.9-1,4.4c-1,2.8-2.6,5.5-4.8,7.6c-2.2,2.1-4.9,3.8-7.7,4.8c-1.4,0.5-2.9,0.9-4.4,1.1c-1.3,0.2-2.3,0.4-3.4,0.9
				c-1,0.5-1.9,1.2-2.6,2.1c-0.4,0.4-0.7,0.9-1,1.4c-0.1,0.2-0.3,0.5-0.4,0.8c-0.1,0.2-0.2,0.6-0.3,0.7c-0.3,1.1-1.4,1.7-2.5,1.4
				c-0.9-0.2-1.4-1-1.4-1.9l0,0c-0.1-2.8-0.2-5.6-0.5-8.4c-0.2-1.4-0.3-2.8-0.6-4.1c-0.1-0.7-0.3-1.3-0.5-1.9c-0.2-0.7-0.4-1-0.7-2
				c-0.5-1.6-0.7-3-0.9-4.6c-0.2-1.5-0.2-3-0.2-4.5c0.1-3,0.5-6,1.4-8.9c0.9-2.9,2.3-5.6,4.2-8c1.9-2.4,4.2-4.3,6.8-5.8
				c2.6-1.5,5.3-2.5,8.2-3.2c1.4-0.3,2.8-0.6,4.3-0.8C81.6,135.3,83.2,135.3,84.5,135.2z M84.5,135.2c-1.5,0.3-2.8,0.5-4.2,0.9
				c-1.4,0.3-2.7,0.8-4.1,1.2c-2.6,1-5.2,2.2-7.4,3.8c-4.6,3.1-7.7,7.8-9.1,13c-0.7,2.6-1,5.3-0.9,8c0,1.4,0.1,2.7,0.3,4
				c0.2,1.3,0.5,2.7,0.9,3.8c0.1,0.4,0.6,1.3,0.7,2.1c0.2,0.8,0.4,1.5,0.6,2.2c0.3,1.5,0.5,2.9,0.7,4.4c0.3,2.9,0.5,5.8,0.6,8.7
				l-3.9-0.5c0.2-0.5,0.3-0.9,0.5-1.3c0.2-0.4,0.4-0.7,0.6-1.1c0.4-0.7,0.9-1.4,1.4-2c1.1-1.2,2.4-2.3,3.9-3
				c1.5-0.7,3.2-1.1,4.6-1.3c1.2-0.1,2.5-0.4,3.7-0.8c2.4-0.7,4.6-2,6.5-3.7c1.8-1.7,3.4-3.8,4.3-6.2c0.5-1.2,0.9-2.4,1.1-3.7
				c0.2-1.3,0.4-2.7,0.5-4c0.3-2.7,0.3-5.5,0.2-8.2C86,146.2,85.4,140.7,84.5,135.2z"/>
		</g>
		<g>
			<path class="st0" d="M66.5,167.5c1.2-3,2.6-5.7,4.1-8.4c1.5-2.7,3-5.4,4.5-8c1.5-2.6,3-5.3,4.6-7.9c1.5-2.6,3.1-5.3,4.8-8
				c-0.1,3.2-0.9,6.3-1.9,9.3c-1.1,3-2.4,5.8-4,8.6c-1.6,2.7-3.4,5.3-5.3,7.8C71.2,163.2,69.1,165.5,66.5,167.5z"/>
		</g>
	</g>
	<g>
		<g>
			<path class="st0" d="M60.8,65.1C57,69.2,52.8,73,48.3,76.3c-2.3,1.7-4.7,3.2-7.2,4.6c-0.6,0.3-1.3,0.7-1.9,1l-2,0.9
				c-1.4,0.6-2.8,1-4.3,1.3c-3,0.5-6.1,0.4-9-0.4c-2.9-0.8-5.7-2.3-8-4.4c-1.1-1-2.2-2.1-3.1-3.3c-0.8-1-1.5-1.8-2.5-2.5
				c-0.9-0.6-2-1.1-3.1-1.3C6.7,72,6.1,72,5.6,72c-0.3,0-0.6,0-0.9,0c-0.3,0-0.6,0.1-0.7,0.1c-1.1,0.3-2.1-0.4-2.4-1.5
				c-0.2-0.9,0.2-1.7,0.9-2.2l0,0c2.4-1.4,4.8-3,7-4.6c1.1-0.8,2.2-1.6,3.2-2.5c0.5-0.4,1-0.9,1.4-1.3c0.5-0.5,0.7-0.8,1.4-1.6
				c1.1-1.2,2.3-2.1,3.5-3c1.2-0.9,2.5-1.7,3.8-2.4c2.6-1.4,5.5-2.5,8.4-3.1c3-0.6,6-0.7,9-0.3c3,0.5,5.8,1.5,8.4,3
				c2.5,1.5,4.8,3.4,6.8,5.5c1,1.1,1.9,2.2,2.8,3.3C59.2,62.6,60,64,60.8,65.1z M60.8,65.1c-1-1.1-1.8-2.1-2.9-3.2c-1-1-2-2-3.1-2.9
				c-2.2-1.8-4.5-3.4-7-4.6C42.9,52,37.2,51.6,32,53c-2.6,0.7-5.1,1.8-7.4,3.1c-1.2,0.7-2.3,1.4-3.4,2.3c-1.1,0.8-2.1,1.7-2.9,2.6
				c-0.3,0.3-0.9,1.1-1.4,1.7c-0.5,0.6-1.1,1.1-1.7,1.6c-1.1,1-2.3,1.9-3.5,2.8c-2.4,1.7-4.8,3.3-7.3,4.9L3,68.3
				c0.6-0.1,0.9-0.1,1.3-0.2c0.4,0,0.8,0,1.2,0c0.8,0,1.6,0.1,2.4,0.3c1.6,0.3,3.2,1,4.5,1.9c1.4,0.9,2.5,2.2,3.4,3.4
				c0.7,1,1.6,1.9,2.5,2.8c1.8,1.7,4,3,6.4,3.8c2.4,0.8,5,1,7.5,0.7c1.3-0.2,2.5-0.5,3.8-0.9c1.3-0.5,2.5-1,3.8-1.5
				c2.5-1.1,4.9-2.4,7.3-3.8C51.9,71.9,56.4,68.6,60.8,65.1z"/>
		</g>
		<g>
			<path class="st0" d="M23.8,65.4c3.2-0.4,6.3-0.5,9.3-0.6c3.1-0.1,6.1-0.1,9.2-0.1c3,0,6.1,0,9.1,0.1c3.1,0,6.1,0,9.3,0.2
				c-2.8,1.5-5.9,2.3-9,2.9c-3.1,0.5-6.3,0.8-9.4,0.8c-3.1,0-6.3-0.3-9.4-0.8C29.8,67.4,26.8,66.7,23.8,65.4z"/>
		</g>
	</g>
	<g>
		<g>
			<path class="st0" d="M100.1,36.1c-1.9-2.5-3.4-5.4-4.6-8.4c-0.6-1.5-1-3.1-1.3-4.7c-0.3-1.6-0.4-3.3-0.2-5.1
				c0.2-1.7,0.8-3.5,1.8-5.1c1-1.5,2.5-2.8,4-3.7c1.6-0.9,3.2-1.5,4.9-1.9c1.7-0.4,3.4-0.6,5.1-0.6c1.8,0,3.7,0.4,5.5,1.4
				c1.8,1,3.2,2.7,3.8,4.5c0.7,1.8,0.8,3.7,0.7,5.4c-0.1,1.7-0.4,3.4-0.9,5c-0.9,3.2-2.4,6.2-4.3,8.9c-0.9,1.4-2,2.6-3.2,3.8
				c-1.2,1.2-2.5,2.2-4.1,2.9l-0.3,0.2l-0.2-0.1C104.6,37.9,102.3,37,100.1,36.1z M100.1,36.1c2.5,0.4,4.9,0.8,7.3,1.2l-0.6,0.1
				c1.2-0.8,2.2-1.9,3.1-3.1c0.9-1.2,1.7-2.5,2.4-3.8c1.5-2.6,2.5-5.5,3.2-8.3c0.3-1.4,0.5-2.9,0.5-4.3c0-1.4-0.2-2.7-0.6-3.9
				c-0.4-1.1-1.2-2-2.1-2.5c-1-0.5-2.2-0.8-3.6-0.9c-1.4,0-2.8,0.1-4.2,0.4c-0.7,0.1-1.4,0.3-2.1,0.5c-0.6,0.2-1.3,0.4-1.9,0.8
				c-2.4,1.2-4.1,3.3-4.7,6c-0.6,2.7-0.3,5.8,0.3,8.8C97.9,30.2,98.9,33.2,100.1,36.1z"/>
		</g>
		<g>
			<path class="st0" d="M108.1,38.9c1.4-2.9,3.2-5.5,5.3-7.9c1.1-1.2,2.3-2.3,3.6-3.3c1.3-1,2.8-1.9,4.4-2.5
				c1.6-0.6,3.5-0.9,5.3-0.7c1.8,0.2,3.6,0.9,5.1,1.9c1.5,1,2.8,2.2,3.9,3.5c1.1,1.3,2.1,2.7,2.9,4.3c0.8,1.6,1.4,3.5,1.3,5.5
				c-0.1,2-0.9,4.1-2.3,5.5c-1.3,1.4-2.9,2.4-4.5,3.1c-1.6,0.7-3.2,1.2-4.9,1.5c-3.3,0.7-6.6,0.7-9.9,0.3c-1.6-0.2-3.2-0.6-4.8-1.1
				c-1.6-0.5-3.1-1.2-4.5-2.3l-0.3-0.2l0-0.2C108.5,43.7,108.3,41.2,108.1,38.9z M108.1,38.9c0.8,2.4,1.6,4.8,2.2,7l-0.3-0.5
				c1.3,0.7,2.7,1.1,4.2,1.4c1.5,0.3,3,0.4,4.5,0.4c3,0.1,6-0.3,8.9-1c1.4-0.4,2.8-0.8,4-1.5c1.2-0.6,2.4-1.4,3.1-2.3
				c0.8-0.9,1.2-1.9,1.2-3c0-1.1-0.3-2.4-0.9-3.6c-0.6-1.2-1.4-2.5-2.3-3.6c-0.4-0.6-0.9-1.1-1.4-1.6c-0.5-0.5-1-1-1.6-1.3
				c-2.2-1.6-4.8-2.2-7.5-1.4c-2.7,0.7-5.3,2.4-7.7,4.3C112.3,34.2,110.1,36.4,108.1,38.9z"/>
		</g>
		<g>
			<path class="st0" d="M99.7,35.9c-1.6-2.7-3.4-5.3-5.4-7.6c-2-2.3-4.3-4.4-6.8-5.5c-2.6-1.2-5.2-1.1-7.7,0.1
				c-0.6,0.3-1.2,0.7-1.8,1c-0.6,0.4-1.1,0.8-1.6,1.3c-1.1,0.9-2,2-2.9,3.1c-0.8,1.1-1.3,2.3-1.5,3.4c-0.2,1.1,0.1,2.2,0.7,3.2
				c0.6,1,1.6,2,2.7,2.8c1.1,0.8,2.4,1.5,3.7,2.1c2.7,1.2,5.6,2,8.6,2.5c1.5,0.2,3,0.4,4.5,0.3c1.5,0,3-0.2,4.4-0.6l-0.4,0.4
				C97.3,40.4,98.4,38.2,99.7,35.9z M99.7,35.9c-0.6,2.3-1.3,4.7-2,7.1l-0.1,0.2l-0.3,0.2c-1.5,0.8-3.1,1.2-4.8,1.5
				c-1.6,0.2-3.3,0.3-4.9,0.2c-3.3-0.2-6.5-0.7-9.7-2c-1.6-0.6-3.1-1.3-4.6-2.3c-1.5-1-2.8-2.2-3.9-3.8c-1.1-1.6-1.6-3.8-1.3-5.8
				c0.3-2,1.2-3.7,2.2-5.2c1.1-1.4,2.2-2.7,3.6-3.7c1.3-1.1,2.8-2.1,4.4-2.8c1.6-0.7,3.5-1.1,5.3-1c1.9,0.1,3.6,0.7,5.1,1.6
				c1.5,0.9,2.8,2,4,3.2c1.1,1.2,2.1,2.5,3,3.9C97.4,30,98.8,32.9,99.7,35.9z"/>
		</g>
		<g>
			<path class="st0" d="M105.9,55.6c1.8,2.6,3.2,5.5,4.3,8.5c0.5,1.5,0.9,3.1,1.1,4.8c0.2,1.6,0.3,3.4,0,5.1c-0.3,1.7-0.9,3.5-2,5
				c-1.1,1.5-2.6,2.7-4.2,3.5c-1.6,0.8-3.3,1.4-4.9,1.7c-1.7,0.3-3.4,0.5-5.2,0.4c-1.8-0.1-3.7-0.5-5.4-1.6c-1.7-1-3.1-2.8-3.7-4.7
				c-0.6-1.9-0.7-3.7-0.5-5.4c0.2-1.7,0.6-3.4,1.1-5c1-3.2,2.7-6.1,4.6-8.7c1-1.3,2.1-2.6,3.3-3.7c1.2-1.1,2.6-2.1,4.2-2.8l0.3-0.1
				l0.2,0.1C101.4,53.6,103.7,54.6,105.9,55.6z M105.9,55.6c-2.5-0.5-4.9-1-7.2-1.5l0.6,0c-1.2,0.8-2.3,1.9-3.2,3
				c-1,1.1-1.8,2.4-2.6,3.7c-1.6,2.6-2.7,5.4-3.5,8.2c-0.4,1.4-0.6,2.9-0.7,4.2c-0.1,1.4,0,2.7,0.5,3.9c0.4,1.1,1.1,2,2,2.6
				c1,0.6,2.2,0.9,3.6,1c1.4,0,2.8,0,4.2-0.3c0.7-0.1,1.4-0.3,2.1-0.4c0.7-0.2,1.3-0.4,1.9-0.7c2.5-1.1,4.2-3.1,4.9-5.9
				c0.7-2.7,0.6-5.8,0-8.8C107.9,61.6,107,58.6,105.9,55.6z"/>
		</g>
		<g>
			<path class="st0" d="M96.8,53.5c-1.4,2.9-3.2,5.5-5.3,7.9c-1.1,1.2-2.3,2.3-3.6,3.3c-1.3,1-2.8,1.9-4.4,2.5
				c-1.6,0.6-3.5,0.9-5.3,0.7C76.3,67.7,74.5,67,73,66c-1.5-1-2.8-2.2-3.9-3.5c-1.1-1.3-2.1-2.7-2.9-4.3c-0.8-1.6-1.4-3.5-1.3-5.5
				c0.1-2,0.9-4.1,2.3-5.5c1.3-1.4,2.9-2.4,4.5-3.1c1.6-0.7,3.2-1.2,4.9-1.5c3.3-0.7,6.6-0.7,9.9-0.3c1.6,0.2,3.2,0.6,4.8,1.1
				c1.6,0.5,3.1,1.2,4.5,2.3l0.3,0.2l0,0.2C96.4,48.7,96.6,51.1,96.8,53.5z M96.8,53.5c-0.8-2.4-1.6-4.8-2.2-7l0.3,0.5
				c-1.3-0.7-2.7-1.1-4.2-1.4c-1.5-0.3-3-0.4-4.5-0.4c-3-0.1-6,0.3-8.9,1c-1.4,0.4-2.8,0.8-4,1.5c-1.2,0.6-2.4,1.4-3.1,2.3
				c-0.8,0.9-1.2,1.9-1.2,3c0,1.1,0.3,2.4,0.9,3.6c0.6,1.2,1.4,2.5,2.3,3.6c0.4,0.6,0.9,1.1,1.4,1.6c0.5,0.5,1,1,1.6,1.3
				c2.2,1.6,4.8,2.2,7.5,1.4c2.7-0.7,5.3-2.4,7.7-4.3C92.6,58.1,94.8,55.9,96.8,53.5z"/>
		</g>
		<g>
			<path class="st0" d="M106.2,55.7c1.4,2.8,3,5.5,4.8,8c1.8,2.5,4,4.7,6.4,6c2.5,1.4,5.2,1.5,7.6,0.4c0.6-0.2,1.2-0.6,1.8-0.9
				c0.6-0.4,1.2-0.8,1.7-1.2c1.2-0.8,2.2-1.9,3.1-2.9c0.9-1,1.5-2.2,1.7-3.3c0.2-1.1,0.1-2.2-0.5-3.2c-0.5-1.1-1.5-2.1-2.5-3
				c-1.1-0.9-2.3-1.7-3.6-2.4c-2.6-1.4-5.4-2.5-8.4-3.1c-1.5-0.3-3-0.6-4.4-0.7c-1.5-0.1-3,0-4.4,0.3l0.4-0.4
				C108.9,51.4,107.6,53.5,106.2,55.7z M106.2,55.7c0.8-2.2,1.6-4.6,2.5-6.9l0.1-0.2l0.3-0.1c1.6-0.7,3.2-1,4.9-1.1
				c1.7-0.1,3.3-0.1,4.9,0.1c3.3,0.4,6.5,1.2,9.5,2.7c1.5,0.7,3,1.5,4.4,2.6c1.4,1.1,2.7,2.4,3.6,4.1c1,1.7,1.3,3.9,0.9,5.9
				c-0.4,2-1.4,3.7-2.6,5c-1.2,1.3-2.4,2.5-3.8,3.5c-1.4,1-2.9,1.9-4.6,2.4c-1.7,0.6-3.6,0.9-5.4,0.6c-1.8-0.2-3.6-1-5-1.9
				c-1.5-1-2.7-2.2-3.7-3.5c-1-1.3-1.9-2.7-2.7-4.1C108,61.8,106.9,58.8,106.2,55.7z"/>
		</g>
	</g>
	<path class="st0" d="M113.1,39.8c3,5.6,0.9,12.6-4.7,15.6c-5.6,3-12.6,0.9-15.6-4.7c-3-5.6-0.9-12.6,4.7-15.6
		C103.1,32.1,110.1,34.2,113.1,39.8z"/>
	<g>
		<g>
			<path class="st0" d="M134.5,94.3c-1.9-2.5-3.4-5.4-4.6-8.4c-0.6-1.5-1-3.1-1.3-4.7c-0.3-1.6-0.4-3.3-0.2-5.1
				c0.2-1.7,0.8-3.5,1.8-5.1c1-1.5,2.5-2.8,4-3.7c1.6-0.9,3.2-1.5,4.9-1.9c1.7-0.4,3.4-0.6,5.1-0.6c1.8,0,3.7,0.4,5.5,1.4
				c1.8,1,3.2,2.7,3.8,4.5c0.7,1.8,0.8,3.7,0.7,5.4c-0.1,1.7-0.4,3.4-0.9,5c-0.9,3.2-2.4,6.2-4.3,8.9c-0.9,1.4-2,2.6-3.2,3.8
				c-1.2,1.2-2.5,2.2-4.1,2.9l-0.3,0.2l-0.2-0.1C138.9,96.1,136.6,95.2,134.5,94.3z M134.5,94.3c2.5,0.4,4.9,0.8,7.3,1.2l-0.6,0.1
				c1.2-0.8,2.2-1.9,3.1-3.1c0.9-1.2,1.7-2.5,2.4-3.8c1.5-2.6,2.5-5.5,3.2-8.3c0.3-1.4,0.5-2.9,0.5-4.3c0-1.4-0.2-2.7-0.6-3.9
				c-0.4-1.1-1.2-2-2.1-2.5c-1-0.5-2.2-0.8-3.6-0.9c-1.4,0-2.8,0.1-4.2,0.4c-0.7,0.1-1.4,0.3-2.1,0.5c-0.6,0.2-1.3,0.4-1.9,0.8
				c-2.4,1.2-4.1,3.3-4.7,6c-0.6,2.7-0.3,5.8,0.3,8.8C132.2,88.4,133.2,91.4,134.5,94.3z"/>
		</g>
		<g>
			<path class="st0" d="M142.4,97c1.4-2.9,3.2-5.5,5.3-7.9c1.1-1.2,2.3-2.3,3.6-3.3c1.3-1,2.8-1.9,4.4-2.5c1.6-0.6,3.5-0.9,5.3-0.7
				c1.8,0.2,3.6,0.9,5.1,1.9c1.5,1,2.8,2.2,3.9,3.5c1.1,1.3,2.1,2.7,2.9,4.3c0.8,1.6,1.4,3.5,1.3,5.5c-0.1,2-0.9,4.1-2.3,5.5
				c-1.3,1.4-2.9,2.4-4.5,3.1c-1.6,0.7-3.2,1.2-4.9,1.5c-3.3,0.7-6.6,0.7-9.9,0.3c-1.6-0.2-3.2-0.6-4.8-1.1
				c-1.6-0.5-3.1-1.2-4.5-2.3l-0.3-0.2l0-0.2C142.8,101.8,142.6,99.4,142.4,97z M142.4,97c0.8,2.4,1.6,4.8,2.2,7l-0.3-0.5
				c1.3,0.7,2.7,1.1,4.2,1.4c1.5,0.3,3,0.4,4.5,0.4c3,0.1,6-0.3,8.9-1c1.4-0.4,2.8-0.8,4-1.5c1.2-0.6,2.4-1.4,3.1-2.3
				c0.8-0.9,1.2-1.9,1.2-3c0-1.1-0.3-2.4-0.9-3.6c-0.6-1.2-1.4-2.5-2.3-3.6c-0.4-0.6-0.9-1.1-1.4-1.6c-0.5-0.5-1-1-1.6-1.3
				c-2.2-1.6-4.8-2.2-7.5-1.4c-2.7,0.7-5.3,2.4-7.7,4.3C146.6,92.4,144.4,94.6,142.4,97z"/>
		</g>
		<g>
			<path class="st0" d="M134,94.1c-1.6-2.7-3.4-5.3-5.4-7.6c-2-2.3-4.3-4.4-6.8-5.5c-2.6-1.2-5.2-1.1-7.7,0.1
				c-0.6,0.3-1.2,0.7-1.8,1c-0.6,0.4-1.1,0.8-1.6,1.3c-1.1,0.9-2,2-2.9,3.1c-0.8,1.1-1.3,2.3-1.5,3.4c-0.2,1.1,0.1,2.2,0.7,3.2
				c0.6,1,1.6,2,2.7,2.8c1.1,0.8,2.4,1.5,3.7,2.1c2.7,1.2,5.6,2,8.6,2.5c1.5,0.2,3,0.4,4.5,0.3c1.5,0,3-0.2,4.4-0.6l-0.4,0.4
				C131.6,98.5,132.8,96.4,134,94.1z M134,94.1c-0.6,2.3-1.3,4.7-2,7.1l-0.1,0.2l-0.3,0.2c-1.5,0.8-3.1,1.2-4.8,1.5
				c-1.6,0.2-3.3,0.3-4.9,0.2c-3.3-0.2-6.5-0.7-9.7-2c-1.6-0.6-3.1-1.3-4.6-2.3c-1.5-1-2.8-2.2-3.9-3.8c-1.1-1.6-1.6-3.8-1.3-5.8
				c0.3-2,1.2-3.7,2.2-5.2c1.1-1.4,2.2-2.7,3.6-3.7c1.3-1.1,2.8-2.1,4.4-2.8c1.6-0.7,3.5-1.1,5.3-1c1.9,0.1,3.6,0.7,5.1,1.6
				c1.5,0.9,2.8,2,4,3.2c1.1,1.2,2.1,2.5,3,3.9C131.8,88.1,133.1,91.1,134,94.1z"/>
		</g>
		<g>
			<path class="st0" d="M140.2,113.8c1.8,2.6,3.2,5.5,4.3,8.5c0.5,1.5,0.9,3.1,1.1,4.8c0.2,1.6,0.3,3.4,0,5.1c-0.3,1.7-0.9,3.5-2,5
				c-1.1,1.5-2.6,2.7-4.2,3.5c-1.6,0.8-3.3,1.4-4.9,1.7c-1.7,0.3-3.4,0.5-5.2,0.4c-1.8-0.1-3.7-0.5-5.4-1.6c-1.7-1-3.1-2.8-3.7-4.7
				c-0.6-1.9-0.7-3.7-0.5-5.4c0.2-1.7,0.6-3.4,1.1-5c1-3.2,2.7-6.1,4.6-8.7c1-1.3,2.1-2.6,3.3-3.7c1.2-1.1,2.6-2.1,4.2-2.8l0.3-0.1
				l0.2,0.1C135.8,111.8,138,112.8,140.2,113.8z M140.2,113.8c-2.5-0.5-4.9-1-7.2-1.5l0.6,0c-1.2,0.8-2.3,1.9-3.2,3
				c-1,1.1-1.8,2.4-2.6,3.7c-1.6,2.6-2.7,5.4-3.5,8.2c-0.4,1.4-0.6,2.9-0.7,4.2c-0.1,1.4,0,2.7,0.5,3.9c0.4,1.1,1.1,2,2,2.6
				c1,0.6,2.2,0.9,3.6,1c1.4,0,2.8,0,4.2-0.3c0.7-0.1,1.4-0.3,2.1-0.4c0.7-0.2,1.3-0.4,1.9-0.7c2.5-1.1,4.2-3.1,4.9-5.9
				c0.7-2.7,0.6-5.8,0-8.8C142.2,119.7,141.3,116.7,140.2,113.8z"/>
		</g>
		<g>
			<path class="st0" d="M131.2,111.7c-1.4,2.9-3.2,5.5-5.3,7.9c-1.1,1.2-2.3,2.3-3.6,3.3c-1.3,1-2.8,1.9-4.4,2.5
				c-1.6,0.6-3.5,0.9-5.3,0.7c-1.8-0.2-3.6-0.9-5.1-1.9c-1.5-1-2.8-2.2-3.9-3.5c-1.1-1.3-2.1-2.7-2.9-4.3c-0.8-1.6-1.4-3.5-1.3-5.5
				c0.1-2,0.9-4.1,2.3-5.5c1.3-1.4,2.9-2.4,4.5-3.1c1.6-0.7,3.2-1.2,4.9-1.5c3.3-0.7,6.6-0.7,9.9-0.3c1.6,0.2,3.2,0.6,4.8,1.1
				c1.6,0.5,3.1,1.2,4.5,2.3l0.3,0.2l0,0.2C130.7,106.8,130.9,109.3,131.2,111.7z M131.2,111.7c-0.8-2.4-1.6-4.8-2.2-7l0.3,0.5
				c-1.3-0.7-2.7-1.1-4.2-1.4c-1.5-0.3-3-0.4-4.5-0.4c-3-0.1-6,0.3-8.9,1c-1.4,0.4-2.8,0.8-4,1.5c-1.2,0.6-2.4,1.4-3.1,2.3
				c-0.8,0.9-1.2,1.9-1.2,3c0,1.1,0.3,2.4,0.9,3.6c0.6,1.2,1.4,2.5,2.3,3.6c0.4,0.6,0.9,1.1,1.4,1.6c0.5,0.5,1,1,1.6,1.3
				c2.2,1.6,4.8,2.2,7.5,1.4c2.7-0.7,5.3-2.4,7.7-4.3C126.9,116.3,129.1,114.1,131.2,111.7z"/>
		</g>
		<g>
			<path class="st0" d="M140.5,113.9c1.4,2.8,3,5.5,4.8,8c1.8,2.5,4,4.7,6.4,6c2.5,1.4,5.2,1.5,7.6,0.4c0.6-0.2,1.2-0.6,1.8-0.9
				c0.6-0.4,1.2-0.8,1.7-1.2c1.2-0.8,2.2-1.9,3.1-2.9c0.9-1,1.5-2.2,1.7-3.3c0.2-1.1,0.1-2.2-0.5-3.2c-0.5-1.1-1.5-2.1-2.5-3
				c-1.1-0.9-2.3-1.7-3.6-2.4c-2.6-1.4-5.4-2.5-8.4-3.1c-1.5-0.3-3-0.6-4.4-0.7c-1.5-0.1-3,0-4.4,0.3l0.4-0.4
				C143.2,109.6,141.9,111.7,140.5,113.9z M140.5,113.9c0.8-2.2,1.6-4.6,2.5-6.9l0.1-0.2l0.3-0.1c1.6-0.7,3.2-1,4.9-1.1
				c1.7-0.1,3.3-0.1,4.9,0.1c3.3,0.4,6.5,1.2,9.5,2.7c1.5,0.7,3,1.5,4.4,2.6c1.4,1.1,2.7,2.4,3.6,4.1c1,1.7,1.3,3.9,0.9,5.9
				c-0.4,2-1.4,3.7-2.6,5c-1.2,1.3-2.4,2.5-3.8,3.5c-1.4,1-2.9,1.9-4.6,2.4c-1.7,0.6-3.6,0.9-5.4,0.6c-1.8-0.2-3.6-1-5-1.9
				c-1.5-1-2.7-2.2-3.7-3.5c-1-1.3-1.9-2.7-2.7-4.1C142.3,120,141.2,117,140.5,113.9z"/>
		</g>
	</g>
	<path class="st0" d="M147.4,97.9c3,5.6,0.9,12.6-4.7,15.6c-5.6,3-12.6,0.9-15.6-4.7c-3-5.6-0.9-12.6,4.7-15.6
		C137.5,90.3,144.4,92.4,147.4,97.9z"/>
	<g>
		<g>
			<path class="st0" d="M63.5,94.6c-1.9-2.5-3.4-5.4-4.6-8.4c-0.6-1.5-1-3.1-1.3-4.7c-0.3-1.6-0.4-3.3-0.2-5.1
				c0.2-1.7,0.8-3.5,1.8-5.1c1-1.5,2.5-2.8,4-3.7c1.6-0.9,3.2-1.5,4.9-1.9c1.7-0.4,3.4-0.6,5.1-0.6c1.8,0,3.7,0.4,5.5,1.4
				c1.8,1,3.2,2.7,3.8,4.5c0.7,1.8,0.8,3.7,0.7,5.4c-0.1,1.7-0.4,3.4-0.9,5c-0.9,3.2-2.4,6.2-4.3,8.9c-0.9,1.4-2,2.6-3.2,3.8
				c-1.2,1.2-2.5,2.2-4.1,2.9l-0.3,0.2l-0.2-0.1C68,96.4,65.7,95.5,63.5,94.6z M63.5,94.6c2.5,0.4,4.9,0.8,7.3,1.2l-0.6,0.1
				c1.2-0.8,2.2-1.9,3.1-3.1c0.9-1.2,1.7-2.5,2.4-3.8c1.5-2.6,2.5-5.5,3.2-8.3c0.3-1.4,0.5-2.9,0.5-4.3c0-1.4-0.2-2.7-0.6-3.9
				c-0.4-1.1-1.2-2-2.1-2.5c-1-0.5-2.2-0.8-3.6-0.9c-1.4,0-2.8,0.1-4.2,0.4c-0.7,0.1-1.4,0.3-2.1,0.5c-0.6,0.2-1.3,0.4-1.9,0.8
				c-2.4,1.2-4.1,3.3-4.7,6c-0.6,2.7-0.3,5.8,0.3,8.8C61.3,88.7,62.3,91.7,63.5,94.6z"/>
		</g>
		<g>
			<path class="st0" d="M71.4,97.3c1.4-2.9,3.2-5.5,5.3-7.9c1.1-1.2,2.3-2.3,3.6-3.3c1.3-1,2.8-1.9,4.4-2.5c1.6-0.6,3.5-0.9,5.3-0.7
				c1.8,0.2,3.6,0.9,5.1,1.9c1.5,1,2.8,2.2,3.9,3.5c1.1,1.3,2.1,2.7,2.9,4.3c0.8,1.6,1.4,3.5,1.3,5.5c-0.1,2-0.9,4.1-2.3,5.5
				c-1.3,1.4-2.9,2.4-4.5,3.1c-1.6,0.7-3.2,1.2-4.9,1.5c-3.3,0.7-6.6,0.7-9.9,0.3c-1.6-0.2-3.2-0.6-4.8-1.1
				c-1.6-0.5-3.1-1.2-4.5-2.3l-0.3-0.2l0-0.2C71.9,102.1,71.6,99.7,71.4,97.3z M71.4,97.3c0.8,2.4,1.6,4.8,2.2,7l-0.3-0.5
				c1.3,0.7,2.7,1.1,4.2,1.4c1.5,0.3,3,0.4,4.5,0.4c3,0.1,6-0.3,8.9-1c1.4-0.4,2.8-0.8,4-1.5c1.2-0.6,2.4-1.4,3.1-2.3
				c0.8-0.9,1.2-1.9,1.2-3c0-1.1-0.3-2.4-0.9-3.6c-0.6-1.2-1.4-2.5-2.3-3.6c-0.4-0.6-0.9-1.1-1.4-1.6c-0.5-0.5-1-1-1.6-1.3
				c-2.2-1.6-4.8-2.2-7.5-1.4c-2.7,0.7-5.3,2.4-7.7,4.3C75.6,92.6,73.5,94.9,71.4,97.3z"/>
		</g>
		<g>
			<path class="st0" d="M63,94.4c-1.6-2.7-3.4-5.3-5.4-7.6c-2-2.3-4.3-4.4-6.8-5.5c-2.6-1.2-5.2-1.1-7.7,0.1c-0.6,0.3-1.2,0.7-1.8,1
				c-0.6,0.4-1.1,0.8-1.6,1.3c-1.1,0.9-2,2-2.9,3.1c-0.8,1.1-1.3,2.3-1.5,3.4c-0.2,1.1,0.1,2.2,0.7,3.2c0.6,1,1.6,2,2.7,2.8
				c1.1,0.8,2.4,1.5,3.7,2.1c2.7,1.2,5.6,2,8.6,2.5c1.5,0.2,3,0.4,4.5,0.3c1.5,0,3-0.2,4.4-0.6l-0.4,0.4
				C60.7,98.8,61.8,96.7,63,94.4z M63,94.4c-0.6,2.3-1.3,4.7-2,7.1l-0.1,0.2l-0.3,0.2c-1.5,0.8-3.1,1.2-4.8,1.5
				c-1.6,0.2-3.3,0.3-4.9,0.2c-3.3-0.2-6.5-0.7-9.7-2c-1.6-0.6-3.1-1.3-4.6-2.3c-1.5-1-2.8-2.2-3.9-3.8c-1.1-1.6-1.6-3.8-1.3-5.8
				c0.3-2,1.2-3.7,2.2-5.2c1.1-1.4,2.2-2.7,3.6-3.7c1.3-1.1,2.8-2.1,4.4-2.8c1.6-0.7,3.5-1.1,5.3-1c1.9,0.1,3.6,0.7,5.1,1.6
				c1.5,0.9,2.8,2,4,3.2c1.1,1.2,2.1,2.5,3,3.9C60.8,88.4,62.1,91.3,63,94.4z"/>
		</g>
		<g>
			<path class="st0" d="M69.2,114.1c1.8,2.6,3.2,5.5,4.3,8.5c0.5,1.5,0.9,3.1,1.1,4.8c0.2,1.6,0.3,3.4,0,5.1c-0.3,1.7-0.9,3.5-2,5
				c-1.1,1.5-2.6,2.7-4.2,3.5c-1.6,0.8-3.3,1.4-4.9,1.7c-1.7,0.3-3.4,0.5-5.2,0.4c-1.8-0.1-3.7-0.5-5.4-1.6c-1.7-1-3.1-2.8-3.7-4.7
				c-0.6-1.9-0.7-3.7-0.5-5.4c0.2-1.7,0.6-3.4,1.1-5c1-3.2,2.7-6.1,4.6-8.7c1-1.3,2.1-2.6,3.3-3.7c1.2-1.1,2.6-2.1,4.2-2.8l0.3-0.1
				l0.2,0.1C64.8,112.1,67.1,113.1,69.2,114.1z M69.2,114.1c-2.5-0.5-4.9-1-7.2-1.5l0.6,0c-1.2,0.8-2.3,1.9-3.2,3
				c-1,1.1-1.8,2.4-2.6,3.7c-1.6,2.6-2.7,5.4-3.5,8.2c-0.4,1.4-0.6,2.9-0.7,4.2c-0.1,1.4,0,2.7,0.5,3.9c0.4,1.1,1.1,2,2,2.6
				c1,0.6,2.2,0.9,3.6,1c1.4,0,2.8,0,4.2-0.3c0.7-0.1,1.4-0.3,2.1-0.4c0.7-0.2,1.3-0.4,1.9-0.7c2.5-1.1,4.2-3.1,4.9-5.9
				c0.7-2.7,0.6-5.8,0-8.8C71.2,120,70.3,117,69.2,114.1z"/>
		</g>
		<g>
			<path class="st0" d="M60.2,111.9c-1.4,2.9-3.2,5.5-5.3,7.9c-1.1,1.2-2.3,2.3-3.6,3.3c-1.3,1-2.8,1.9-4.4,2.5
				c-1.6,0.6-3.5,0.9-5.3,0.7c-1.8-0.2-3.6-0.9-5.1-1.9c-1.5-1-2.8-2.2-3.9-3.5c-1.1-1.3-2.1-2.7-2.9-4.3c-0.8-1.6-1.4-3.5-1.3-5.5
				c0.1-2,0.9-4.1,2.3-5.5c1.3-1.4,2.9-2.4,4.5-3.1c1.6-0.7,3.2-1.2,4.9-1.5c3.3-0.7,6.6-0.7,9.9-0.3c1.6,0.2,3.2,0.6,4.8,1.1
				c1.6,0.5,3.1,1.2,4.5,2.3l0.3,0.2l0,0.2C59.7,107.1,60,109.6,60.2,111.9z M60.2,111.9c-0.8-2.4-1.6-4.8-2.2-7l0.3,0.5
				c-1.3-0.7-2.7-1.1-4.2-1.4c-1.5-0.3-3-0.4-4.5-0.4c-3-0.1-6,0.3-8.9,1c-1.4,0.4-2.8,0.8-4,1.5c-1.2,0.6-2.4,1.4-3.1,2.3
				c-0.8,0.9-1.2,1.9-1.2,3c0,1.1,0.3,2.4,0.9,3.6c0.6,1.2,1.4,2.5,2.3,3.6c0.4,0.6,0.9,1.1,1.4,1.6c0.5,0.5,1,1,1.6,1.3
				c2.2,1.6,4.8,2.2,7.5,1.4c2.7-0.7,5.3-2.4,7.7-4.3C56,116.6,58.2,114.3,60.2,111.9z"/>
		</g>
		<g>
			<path class="st0" d="M69.6,114.1c1.4,2.8,3,5.5,4.8,8c1.8,2.5,4,4.7,6.4,6c2.5,1.4,5.2,1.5,7.6,0.4c0.6-0.2,1.2-0.6,1.8-0.9
				c0.6-0.4,1.2-0.8,1.7-1.2c1.2-0.8,2.2-1.9,3.1-2.9c0.9-1,1.5-2.2,1.7-3.3c0.2-1.1,0.1-2.2-0.5-3.2c-0.5-1.1-1.5-2.1-2.5-3
				c-1.1-0.9-2.3-1.7-3.6-2.4c-2.6-1.4-5.4-2.5-8.4-3.1c-1.5-0.3-3-0.6-4.4-0.7c-1.5-0.1-3,0-4.4,0.3l0.4-0.4
				C72.2,109.9,70.9,112,69.6,114.1z M69.6,114.1c0.8-2.2,1.6-4.6,2.5-6.9l0.1-0.2l0.3-0.1c1.6-0.7,3.2-1,4.9-1.1
				c1.7-0.1,3.3-0.1,4.9,0.1c3.3,0.4,6.5,1.2,9.5,2.7c1.5,0.7,3,1.5,4.4,2.6c1.4,1.1,2.7,2.4,3.6,4.1c1,1.7,1.3,3.9,0.9,5.9
				c-0.4,2-1.4,3.7-2.6,5c-1.2,1.3-2.4,2.5-3.8,3.5c-1.4,1-2.9,1.9-4.6,2.4c-1.7,0.6-3.6,0.9-5.4,0.6c-1.8-0.2-3.6-1-5-1.9
				c-1.5-1-2.7-2.2-3.7-3.5c-1-1.3-1.9-2.7-2.7-4.1C71.3,120.3,70.2,117.2,69.6,114.1z"/>
		</g>
	</g>
	<path class="st0" d="M76.5,98.2c3,5.6,0.9,12.6-4.7,15.6c-5.6,3-12.6,0.9-15.6-4.7c-3-5.6-0.9-12.6,4.7-15.6
		C66.5,90.6,73.5,92.6,76.5,98.2z"/>
</g>
</svg>
